<svg width="24" height="23" viewBox="0 0 24 23" fill="none" xmlns="http://www.w3.org/2000/svg">
<path d="M21.1242 8.41964C21.0666 8.24983 20.9604 8.10061 20.819 7.99043C20.6775 7.88024 20.5068 7.81389 20.3281 7.79959L15.0989 7.38408L12.8361 2.37506C12.764 2.21373 12.6468 2.07671 12.4986 1.98052C12.3504 1.88434 12.1775 1.8331 12.0008 1.83301C11.8241 1.83291 11.6511 1.88395 11.5028 1.97998C11.3545 2.076 11.2371 2.2129 11.1649 2.37415L8.90207 7.38408L3.67292 7.79959C3.49723 7.8135 3.32927 7.87774 3.18913 7.98462C3.04899 8.0915 2.94261 8.23648 2.88272 8.40224C2.82282 8.56799 2.81195 8.74749 2.8514 8.91926C2.89084 9.09103 2.97894 9.2478 3.10515 9.37081L6.96946 13.1379L5.60278 19.0559C5.56128 19.235 5.57458 19.4225 5.64096 19.594C5.70733 19.7655 5.82371 19.913 5.975 20.0175C6.12628 20.1221 6.30549 20.1787 6.48937 20.1801C6.67324 20.1815 6.85329 20.1276 7.00615 20.0254L12.0005 16.6958L16.9948 20.0254C17.1511 20.1291 17.3353 20.1825 17.5228 20.1784C17.7103 20.1743 17.8921 20.1129 18.0436 20.0024C18.1951 19.8919 18.3092 19.7377 18.3705 19.5604C18.4317 19.3832 18.4372 19.1914 18.3863 19.0109L16.7087 13.1406L20.8692 9.39649C21.1416 9.15067 21.2416 8.76727 21.1242 8.41964Z" fill="#F3CD03"/>
</svg>
