<svg width="49" height="48" viewBox="0 0 49 48" fill="none" xmlns="http://www.w3.org/2000/svg">
<g clip-path="url(#clip0_2696_497)">
<g clip-path="url(#clip1_2696_497)">
<g clip-path="url(#clip2_2696_497)">
<path d="M27.5234 16.3027C29.1803 16.3027 30.5234 14.9596 30.5234 13.3027C30.5234 11.6459 29.1803 10.3027 27.5234 10.3027C25.8666 10.3027 24.5234 11.6459 24.5234 13.3027C24.5234 14.9596 25.8666 16.3027 27.5234 16.3027Z" fill="#F68820"/>
</g>
<path d="M43.7235 43.9027L30.5235 26.3025V13.6777C30.5235 12.8497 29.8515 12.1777 29.0235 12.1777C28.1955 12.1777 27.5235 12.8497 27.5235 13.6777V26.3025L14.3235 43.9027C13.8262 44.5657 13.9612 45.5062 14.6235 46.0027C14.8935 46.206 15.2092 46.3027 15.5227 46.3027C15.9787 46.3027 16.4287 46.0957 16.7242 45.7027L27.5242 31.3027V44.8027C27.5242 45.6307 28.1962 46.3027 29.0242 46.3027C29.8522 46.3027 30.5242 45.6307 30.5242 44.8027V31.3027L41.3242 45.7027C41.619 46.095 42.0697 46.3027 42.5257 46.3027C42.8385 46.3027 43.155 46.2052 43.425 46.0027C44.0857 45.5062 44.22 44.5657 43.7235 43.9027Z" fill="#55525B"/>
<g clip-path="url(#clip3_2696_497)">
<path d="M24.5214 35.8028C23.8951 35.8028 23.2636 35.6071 22.7236 35.2028C21.3976 34.2083 21.1299 32.328 22.1236 31.002L26.6236 25.002C27.6189 23.6768 29.4984 23.4098 30.8236 24.402C32.1496 25.3965 32.4174 27.2768 31.4236 28.6028L26.9236 34.6028C26.3341 35.3888 25.4334 35.8028 24.5214 35.8028Z" fill="#5C76B2"/>
</g>
<g clip-path="url(#clip4_2696_497)">
<path d="M33.5256 35.8035C32.6136 35.8035 31.7129 35.3895 31.1234 34.6035L26.6234 28.6036C25.6296 27.2776 25.8981 25.3981 27.2234 24.4028C28.5479 23.4098 30.4281 23.6761 31.4234 25.0028L35.9234 31.0028C36.9171 32.3288 36.6486 34.2083 35.3234 35.2035C34.7834 35.6085 34.1519 35.8035 33.5256 35.8035Z" fill="#5C76B2"/>
</g>
<g clip-path="url(#clip5_2696_497)">
<g clip-path="url(#clip6_2696_497)">
<path d="M43.0315 8.9975L40.0772 8.47625C37.63 8.045 35.2959 9.67925 34.8639 12.1265C34.4327 14.5738 36.0669 16.9078 38.5142 17.3398L41.4685 17.861C43.9157 18.2923 46.2497 16.658 46.6817 14.2108C47.113 11.7628 45.4787 9.42875 43.0315 8.9975Z" fill="#F68820"/>
</g>
<g clip-path="url(#clip7_2696_497)">
<path d="M39.2969 17.4082C41.7822 17.4082 43.7969 15.3935 43.7969 12.9082C43.7969 10.4229 41.7822 8.4082 39.2969 8.4082C36.8116 8.4082 34.7969 10.4229 34.7969 12.9082C34.7969 15.3935 36.8116 17.4082 39.2969 17.4082Z" fill="#FBBE18"/>
</g>
<g clip-path="url(#clip8_2696_497)">
<path d="M38.7738 15.8626L28.4336 14.0394L29.4753 8.13086L39.8156 9.95411C41.4476 10.2421 42.5366 11.7976 42.2493 13.4296C41.9613 15.0601 40.4058 16.1499 38.7738 15.8626Z" fill="#6FA4D8"/>
</g>
<g clip-path="url(#clip9_2696_497)">
<path d="M28.4336 14.0392L38.7738 15.8625C40.4058 16.1505 41.9613 15.0607 42.2493 13.4287L28.9548 11.085L28.4336 14.0392Z" fill="#5C76B2"/>
</g>
<g clip-path="url(#clip10_2696_497)">
<path d="M25.2192 14.9953L14.8789 13.1721L16.4419 4.30859L26.7822 6.13184C29.2294 6.56309 30.8637 8.8971 30.4324 11.3451C30.0012 13.7931 27.6672 15.4273 25.2192 14.9953Z" fill="#6FA4D8"/>
</g>
<g clip-path="url(#clip11_2696_497)">
<path d="M14.8789 13.172L25.2192 14.9952C27.6664 15.4265 30.0004 13.7922 30.4324 11.345L15.6604 8.74023L14.8789 13.172Z" fill="#5C76B2"/>
</g>
<g clip-path="url(#clip12_2696_497)">
<path d="M14.0082 0.833697L11.0539 0.312447C6.97468 -0.406803 3.08518 2.3172 2.36518 6.39645C1.64593 10.4757 4.36993 14.3652 8.44918 15.0852L11.4034 15.6064C15.4827 16.3257 19.3729 13.6017 20.0922 9.52245C20.8114 5.44245 18.0874 1.55295 14.0082 0.833697Z" fill="#F68820"/>
</g>
<g clip-path="url(#clip13_2696_497)">
<path d="M9.75195 15.1992C13.8941 15.1992 17.252 11.8414 17.252 7.69922C17.252 3.55708 13.8941 0.199219 9.75195 0.199219C5.60982 0.199219 2.25195 3.55708 2.25195 7.69922C2.25195 11.8414 5.60982 15.1992 9.75195 15.1992Z" fill="#FBBE18"/>
</g>
<g clip-path="url(#clip14_2696_497)">
<path d="M9.75195 13.6982C13.0657 13.6982 15.7519 11.0119 15.7519 7.69824C15.7519 4.38453 13.0657 1.69824 9.75195 1.69824C6.43824 1.69824 3.75195 4.38453 3.75195 7.69824C3.75195 11.0119 6.43824 13.6982 9.75195 13.6982Z" fill="#55525B"/>
</g>
<g clip-path="url(#clip15_2696_497)">
<path d="M8.99956 1.74512C7.04056 1.99187 5.31556 3.19937 4.41406 4.95587C4.69531 6.06587 5.59681 6.96587 6.79756 7.17812C8.42956 7.46612 9.98506 6.37637 10.2731 4.74437C10.4838 3.54362 9.94681 2.38862 8.99956 1.74512Z" fill="#B3B4B6"/>
</g>
</g>
<g clip-path="url(#clip16_2696_497)">
<path d="M30.5234 16.3027C32.1803 16.3027 33.5234 14.9596 33.5234 13.3027C33.5234 11.6459 32.1803 10.3027 30.5234 10.3027C28.8666 10.3027 27.5234 11.6459 27.5234 13.3027C27.5234 14.9596 28.8666 16.3027 30.5234 16.3027Z" fill="#FBBE18"/>
</g>
<g clip-path="url(#clip17_2696_497)">
<path d="M30.5234 14.8027C31.3519 14.8027 32.0234 14.1312 32.0234 13.3027C32.0234 12.4743 31.3519 11.8027 30.5234 11.8027C29.695 11.8027 29.0234 12.4743 29.0234 13.3027C29.0234 14.1312 29.695 14.8027 30.5234 14.8027Z" fill="#55525B"/>
</g>
<g clip-path="url(#clip18_2696_497)">
<path d="M15.5234 47.8027C17.1803 47.8027 18.5234 46.4596 18.5234 44.8027C18.5234 43.1459 17.1803 41.8027 15.5234 41.8027C13.8666 41.8027 12.5234 43.1459 12.5234 44.8027C12.5234 46.4596 13.8666 47.8027 15.5234 47.8027Z" fill="#F68820"/>
</g>
<g clip-path="url(#clip19_2696_497)">
<path d="M42.5234 47.8027C44.1803 47.8027 45.5234 46.4596 45.5234 44.8027C45.5234 43.1459 44.1803 41.8027 42.5234 41.8027C40.8666 41.8027 39.5234 43.1459 39.5234 44.8027C39.5234 46.4596 40.8666 47.8027 42.5234 47.8027Z" fill="#F68820"/>
</g>
<g clip-path="url(#clip20_2696_497)">
<path d="M29.0234 47.8027C30.6803 47.8027 32.0234 46.4596 32.0234 44.8027C32.0234 43.1459 30.6803 41.8027 29.0234 41.8027C27.3666 41.8027 26.0234 43.1459 26.0234 44.8027C26.0234 46.4596 27.3666 47.8027 29.0234 47.8027Z" fill="#F68820"/>
</g>
<g clip-path="url(#clip21_2696_497)">
<path d="M29.0234 35.8027C27.3667 35.8027 26.0234 34.4595 26.0234 32.8027V26.8027C26.0234 25.146 27.3667 23.8027 29.0234 23.8027C30.6802 23.8027 32.0234 25.146 32.0234 26.8027V32.8027C32.0234 34.4595 30.6802 35.8027 29.0234 35.8027Z" fill="#F68820"/>
</g>
<g clip-path="url(#clip22_2696_497)">
<path d="M29.0234 35.8027C27.3667 35.8027 26.0234 34.4595 26.0234 32.8027V26.8027C26.0234 25.146 27.3667 23.8027 29.0234 23.8027C30.6802 23.8027 32.0234 25.146 32.0234 26.8027V32.8027C32.0234 34.4595 30.6802 35.8027 29.0234 35.8027Z" fill="#6FA4D8"/>
</g>
</g>
</g>
<defs>
<clipPath id="clip0_2696_497">
<rect width="48" height="48" fill="white" transform="translate(0.5)"/>
</clipPath>
<clipPath id="clip1_2696_497">
<rect width="44.501" height="47.6059" fill="white" transform="translate(2.25 0.197266)"/>
</clipPath>
<clipPath id="clip2_2696_497">
<rect width="6" height="6" fill="white" transform="translate(24.5234 10.3027)"/>
</clipPath>
<clipPath id="clip3_2696_497">
<rect width="10.5003" height="12.0001" fill="white" transform="translate(21.5234 23.8027)"/>
</clipPath>
<clipPath id="clip4_2696_497">
<rect width="10.4999" height="12.0008" fill="white" transform="translate(26.0234 23.8027)"/>
</clipPath>
<clipPath id="clip5_2696_497">
<rect width="44.501" height="17.7327" fill="white" transform="translate(2.25 0.197266)"/>
</clipPath>
<clipPath id="clip6_2696_497">
<rect width="11.9558" height="9.5228" fill="white" transform="translate(34.7949 8.40723)"/>
</clipPath>
<clipPath id="clip7_2696_497">
<rect width="9" height="8.99999" fill="white" transform="translate(34.7969 8.4082)"/>
</clipPath>
<clipPath id="clip8_2696_497">
<rect width="13.8617" height="7.77769" fill="white" transform="translate(28.4336 8.13086)"/>
</clipPath>
<clipPath id="clip9_2696_497">
<rect width="13.8158" height="4.82365" fill="white" transform="translate(28.4336 11.085)"/>
</clipPath>
<clipPath id="clip10_2696_497">
<rect width="15.6225" height="10.756" fill="white" transform="translate(14.8789 4.30859)"/>
</clipPath>
<clipPath id="clip11_2696_497">
<rect width="15.5535" height="6.32402" fill="white" transform="translate(14.8789 8.74023)"/>
</clipPath>
<clipPath id="clip12_2696_497">
<rect width="17.9574" height="15.5244" fill="white" transform="translate(2.25 0.197266)"/>
</clipPath>
<clipPath id="clip13_2696_497">
<rect width="15" height="15" fill="white" transform="translate(2.25195 0.199219)"/>
</clipPath>
<clipPath id="clip14_2696_497">
<rect width="12" height="12" fill="white" transform="translate(3.75195 1.69824)"/>
</clipPath>
<clipPath id="clip15_2696_497">
<rect width="5.90454" height="5.47916" fill="white" transform="translate(4.41406 1.74512)"/>
</clipPath>
<clipPath id="clip16_2696_497">
<rect width="6" height="6" fill="white" transform="translate(27.5234 10.3027)"/>
</clipPath>
<clipPath id="clip17_2696_497">
<rect width="3" height="3" fill="white" transform="translate(29.0234 11.8027)"/>
</clipPath>
<clipPath id="clip18_2696_497">
<rect width="6" height="6" fill="white" transform="translate(12.5234 41.8027)"/>
</clipPath>
<clipPath id="clip19_2696_497">
<rect width="6" height="6" fill="white" transform="translate(39.5234 41.8027)"/>
</clipPath>
<clipPath id="clip20_2696_497">
<rect width="6" height="6" fill="white" transform="translate(26.0234 41.8027)"/>
</clipPath>
<clipPath id="clip21_2696_497">
<rect width="6" height="12" fill="white" transform="translate(26.0234 23.8027)"/>
</clipPath>
<clipPath id="clip22_2696_497">
<rect width="6" height="12" fill="white" transform="translate(26.0234 23.8027)"/>
</clipPath>
</defs>
</svg>
