<svg width="48" height="48" viewBox="0 0 48 48" fill="none" xmlns="http://www.w3.org/2000/svg">
<g clip-path="url(#clip0_2696_542)">
<g clip-path="url(#clip1_2696_542)">
<path d="M28.5001 29.25V21.75H19.5001V29.25L8.70007 43.65C7.58782 45.1335 8.64607 47.25 10.5001 47.25H37.5001C39.3541 47.25 40.4123 45.1335 39.3001 43.65L28.5001 29.25Z" fill="#6FA4D8"/>
</g>
<g clip-path="url(#clip2_2696_542)">
<path d="M39.3 43.65L28.5 29.25V21.75H24H19.5V23.625H22.875C23.496 23.625 24 24.129 24 24.75V29.25L30 47.25H37.5C39.354 47.25 40.4123 45.1335 39.3 43.65Z" fill="#5C76B2"/>
</g>
<g clip-path="url(#clip3_2696_542)">
<path d="M28.5 21.75H19.5C18.6712 21.75 18 21.0788 18 20.25C18 19.4212 18.6712 18.75 19.5 18.75H28.5C29.3287 18.75 30 19.4212 30 20.25C30 21.0788 29.3287 21.75 28.5 21.75Z" fill="#6FA4D8"/>
</g>
<g clip-path="url(#clip4_2696_542)">
<path d="M28.5 18.75H24C24.8287 18.75 25.5 19.4212 25.5 20.25C25.5 21.0788 24.8287 21.75 24 21.75H28.5C29.3287 21.75 30 21.0788 30 20.25C30 19.4212 29.3287 18.75 28.5 18.75Z" fill="#5C76B2"/>
</g>
<g clip-path="url(#clip5_2696_542)">
<path d="M36 44.2496H12L17.625 36.7496L17.6257 36.7489C19.2187 34.6234 22.407 34.6226 24.0007 36.7474L24.0015 36.7481C25.5952 38.8721 28.7805 38.8729 30.375 36.7496L36 44.2496Z" fill="#F68820"/>
</g>
<g clip-path="url(#clip6_2696_542)">
<path d="M30.375 36.7496L30.3743 36.7489C28.7812 34.6234 25.593 34.6226 23.9993 36.7474L23.9985 36.7481C22.4047 38.8721 19.2195 38.8729 17.625 36.7496L12 44.2496H36L30.375 36.7496Z" fill="#FBBE18"/>
</g>
<g clip-path="url(#clip7_2696_542)">
<path d="M30.3751 36.7497L30.3743 36.7489C29.3168 35.3374 27.5573 34.8687 26.0273 35.3314L29.0003 44.2497H36.0001L30.3751 36.7497Z" fill="#F68820"/>
</g>
<g clip-path="url(#clip8_2696_542)">
<path d="M21.375 41.625C21.9963 41.625 22.5 41.1213 22.5 40.5C22.5 39.8787 21.9963 39.375 21.375 39.375C20.7537 39.375 20.25 39.8787 20.25 40.5C20.25 41.1213 20.7537 41.625 21.375 41.625Z" fill="#F68820"/>
</g>
<g clip-path="url(#clip9_2696_542)">
<path d="M18.75 43.125C19.1642 43.125 19.5 42.7892 19.5 42.375C19.5 41.9608 19.1642 41.625 18.75 41.625C18.3358 41.625 18 41.9608 18 42.375C18 42.7892 18.3358 43.125 18.75 43.125Z" fill="#F68820"/>
</g>
<g clip-path="url(#clip10_2696_542)">
<path d="M20.25 14.25C22.3211 14.25 24 12.5711 24 10.5C24 8.42893 22.3211 6.75 20.25 6.75C18.1789 6.75 16.5 8.42893 16.5 10.5C16.5 12.5711 18.1789 14.25 20.25 14.25Z" fill="#F68820"/>
</g>
<g clip-path="url(#clip11_2696_542)">
<path d="M19.125 10.5C19.7463 10.5 20.25 9.99632 20.25 9.375C20.25 8.75368 19.7463 8.25 19.125 8.25C18.5037 8.25 18 8.75368 18 9.375C18 9.99632 18.5037 10.5 19.125 10.5Z" fill="#FBBE18"/>
</g>
<g clip-path="url(#clip12_2696_542)">
<path d="M27.75 17.25C28.9926 17.25 30 16.2426 30 15C30 13.7574 28.9926 12.75 27.75 12.75C26.5074 12.75 25.5 13.7574 25.5 15C25.5 16.2426 26.5074 17.25 27.75 17.25Z" fill="#F68820"/>
</g>
<g clip-path="url(#clip13_2696_542)">
<path d="M27 15C27.4142 15 27.75 14.6642 27.75 14.25C27.75 13.8358 27.4142 13.5 27 13.5C26.5858 13.5 26.25 13.8358 26.25 14.25C26.25 14.6642 26.5858 15 27 15Z" fill="#FBBE18"/>
</g>
<g clip-path="url(#clip14_2696_542)">
<path d="M30.9375 1.6875C30.9375 2.205 30 3.75 30 3.75C30 3.75 29.0625 2.205 29.0625 1.6875C29.0625 1.17 29.4825 0.75 30 0.75C30.5175 0.75 30.9375 1.17 30.9375 1.6875Z" fill="#F68820"/>
</g>
<g clip-path="url(#clip15_2696_542)">
<path d="M27.3825 2.65688C27.831 2.91638 28.7002 4.50038 28.7002 4.50038C28.7002 4.50038 26.8935 4.54013 26.445 4.28138C25.9972 4.02188 25.8435 3.44888 26.1022 3.00038C26.361 2.55188 26.9347 2.39813 27.3825 2.65688Z" fill="#F68820"/>
</g>
<g clip-path="url(#clip16_2696_542)">
<path d="M26.4452 6.21924C26.8937 5.96049 28.7004 6.00024 28.7004 6.00024C28.7004 6.00024 27.8312 7.58424 27.3827 7.84374C26.9342 8.10249 26.3612 7.94874 26.1017 7.50024C25.8437 7.05174 25.9974 6.47874 26.4452 6.21924Z" fill="#F68820"/>
</g>
<g clip-path="url(#clip17_2696_542)">
<path d="M29.0625 8.8125C29.0625 8.295 30 6.75 30 6.75C30 6.75 30.9375 8.295 30.9375 8.8125C30.9375 9.33 30.5175 9.75 30 9.75C29.4825 9.75 29.0625 9.33 29.0625 8.8125Z" fill="#F68820"/>
</g>
<g clip-path="url(#clip18_2696_542)">
<path d="M32.6166 7.84374C32.1681 7.58424 31.2988 6.00024 31.2988 6.00024C31.2988 6.00024 33.1056 5.96049 33.5541 6.21924C34.0026 6.47799 34.1563 7.05174 33.8976 7.50024C33.6381 7.94874 33.0643 8.10249 32.6166 7.84374Z" fill="#F68820"/>
</g>
<g clip-path="url(#clip19_2696_542)">
<path d="M33.5541 4.28074C33.1056 4.53949 31.2988 4.49974 31.2988 4.49974C31.2988 4.49974 32.1681 2.91574 32.6166 2.65624C33.0651 2.39674 33.6381 2.55124 33.8968 2.99974C34.1556 3.44824 34.0018 4.02124 33.5541 4.28074Z" fill="#F68820"/>
</g>
</g>
<defs>
<clipPath id="clip0_2696_542">
<rect width="31.508" height="46.5" fill="white" transform="translate(8.24609 0.75)"/>
</clipPath>
<clipPath id="clip1_2696_542">
<rect width="31.5079" height="25.5" fill="white" transform="translate(8.24609 21.75)"/>
</clipPath>
<clipPath id="clip2_2696_542">
<rect width="20.254" height="25.5" fill="white" transform="translate(19.5 21.75)"/>
</clipPath>
<clipPath id="clip3_2696_542">
<rect width="12" height="3" fill="white" transform="translate(18 18.75)"/>
</clipPath>
<clipPath id="clip4_2696_542">
<rect width="6" height="3" fill="white" transform="translate(24 18.75)"/>
</clipPath>
<clipPath id="clip5_2696_542">
<rect width="24" height="9.09534" fill="white" transform="translate(12 35.1543)"/>
</clipPath>
<clipPath id="clip6_2696_542">
<rect width="24" height="9.09534" fill="white" transform="translate(12 35.1543)"/>
</clipPath>
<clipPath id="clip7_2696_542">
<rect width="9.97275" height="9.09048" fill="white" transform="translate(26.0273 35.1592)"/>
</clipPath>
<clipPath id="clip8_2696_542">
<rect width="2.25" height="2.25" fill="white" transform="translate(20.25 39.375)"/>
</clipPath>
<clipPath id="clip9_2696_542">
<rect width="1.5" height="1.5" fill="white" transform="translate(18 41.625)"/>
</clipPath>
<clipPath id="clip10_2696_542">
<rect width="7.5" height="7.5" fill="white" transform="translate(16.5 6.75)"/>
</clipPath>
<clipPath id="clip11_2696_542">
<rect width="2.25" height="2.25" fill="white" transform="translate(18 8.25)"/>
</clipPath>
<clipPath id="clip12_2696_542">
<rect width="4.5" height="4.5" fill="white" transform="translate(25.5 12.75)"/>
</clipPath>
<clipPath id="clip13_2696_542">
<rect width="1.5" height="1.5" fill="white" transform="translate(26.25 13.5)"/>
</clipPath>
<clipPath id="clip14_2696_542">
<rect width="1.875" height="3" fill="white" transform="translate(29.0625 0.75)"/>
</clipPath>
<clipPath id="clip15_2696_542">
<rect width="2.72365" height="1.97133" fill="white" transform="translate(25.9766 2.53125)"/>
</clipPath>
<clipPath id="clip16_2696_542">
<rect width="2.72388" height="1.97133" fill="white" transform="translate(25.9766 5.99805)"/>
</clipPath>
<clipPath id="clip17_2696_542">
<rect width="1.875" height="3" fill="white" transform="translate(29.0625 6.75)"/>
</clipPath>
<clipPath id="clip18_2696_542">
<rect width="2.72438" height="1.97133" fill="white" transform="translate(31.2988 5.99805)"/>
</clipPath>
<clipPath id="clip19_2696_542">
<rect width="2.72365" height="1.97166" fill="white" transform="translate(31.2988 2.53027)"/>
</clipPath>
</defs>
</svg>
