<svg width="48" height="48" viewBox="0 0 48 48" fill="none" xmlns="http://www.w3.org/2000/svg">
<g clip-path="url(#clip0_2696_444)">
<g clip-path="url(#clip1_2696_444)">
<path d="M46.5 36H4.5V12C4.5 10.3432 5.84325 9 7.5 9H43.5C45.1567 9 46.5 10.3432 46.5 12V36Z" fill="#353744"/>
</g>
<g clip-path="url(#clip2_2696_444)">
<path d="M46.5 36H4.5V37.5C4.5 39.1568 5.84325 40.5 7.5 40.5H43.5C45.1567 40.5 46.5 39.1568 46.5 37.5V36Z" fill="#808080"/>
</g>
<g clip-path="url(#clip3_2696_444)">
<path d="M43.5 36H4.5V12C4.5 10.3432 5.84325 9 7.5 9H40.5C42.1567 9 43.5 10.3432 43.5 12V36Z" fill="#55525B"/>
</g>
<g clip-path="url(#clip4_2696_444)">
<path d="M43.5 36H4.5V37.5C4.5 39.1568 5.84325 40.5 7.5 40.5H40.5C42.1567 40.5 43.5 39.1568 43.5 37.5V36Z" fill="#DBDEE3"/>
</g>
<g clip-path="url(#clip5_2696_444)">
<path d="M39.375 12H8.625C8.004 12 7.5 12.504 7.5 13.125V31.875C7.5 32.496 8.004 33 8.625 33H39.375C39.996 33 40.5 32.496 40.5 31.875V13.125C40.5 12.504 39.996 12 39.375 12Z" fill="#FBBE18"/>
</g>
<g clip-path="url(#clip6_2696_444)">
<path d="M12 18H28.5C29.3288 18 30 17.3287 30 16.5C30 15.6712 29.3288 15 28.5 15H12C11.1712 15 10.5 15.6712 10.5 16.5C10.5 17.3287 11.1712 18 12 18Z" fill="#F68820"/>
</g>
<g clip-path="url(#clip7_2696_444)">
<path d="M12 24H28.5C29.3288 24 30 23.3288 30 22.5C30 21.6712 29.3288 21 28.5 21H12C11.1712 21 10.5 21.6712 10.5 22.5C10.5 23.3288 11.1712 24 12 24Z" fill="#F68820"/>
</g>
<g clip-path="url(#clip8_2696_444)">
<path d="M12 30H28.5C29.3288 30 30 29.3288 30 28.5C30 27.6712 29.3288 27 28.5 27H12C11.1712 27 10.5 27.6712 10.5 28.5C10.5 29.3288 11.1712 30 12 30Z" fill="#F68820"/>
</g>
<g clip-path="url(#clip9_2696_444)">
<path d="M31.125 43.5H28.125V40.5H31.125V43.5Z" fill="#808080"/>
</g>
<g clip-path="url(#clip10_2696_444)">
<path d="M21 40.5H28.125V43.5H21V40.5Z" fill="#B3B4B6"/>
</g>
<g clip-path="url(#clip11_2696_444)">
<path d="M34.125 43.5H15.375C13.7182 43.5 12.375 44.8432 12.375 46.5H37.125C37.125 44.8432 35.7817 43.5 34.125 43.5Z" fill="#DBDEE3"/>
</g>
<g clip-path="url(#clip12_2696_444)">
<path d="M34.125 43.5H31.125C29.4683 43.5 28.125 44.8432 28.125 46.5H37.125C37.125 44.8432 35.7818 43.5 34.125 43.5Z" fill="#808080"/>
</g>
<g clip-path="url(#clip13_2696_444)">
<path d="M12.75 1.5H10.5C5.52975 1.5 1.5 5.52975 1.5 10.5C1.5 15.4703 5.52975 19.5 10.5 19.5H12.75C17.7202 19.5 21.75 15.4703 21.75 10.5C21.75 5.52975 17.7202 1.5 12.75 1.5Z" fill="#5C76B2"/>
</g>
<g clip-path="url(#clip14_2696_444)">
<path d="M10.5 19.5C15.4706 19.5 19.5 15.4706 19.5 10.5C19.5 5.52944 15.4706 1.5 10.5 1.5C5.52944 1.5 1.5 5.52944 1.5 10.5C1.5 15.4706 5.52944 19.5 10.5 19.5Z" fill="#6FA4D8"/>
</g>
<path d="M10.5 18C14.6421 18 18 14.6421 18 10.5C18 6.35786 14.6421 3 10.5 3C6.35786 3 3 6.35786 3 10.5C3 14.6421 6.35786 18 10.5 18Z" fill="#55525B"/>
<g clip-path="url(#clip15_2696_444)">
<path d="M10.5 10.875C10.293 10.875 10.125 10.707 10.125 10.5V4.5C10.125 4.293 10.293 4.125 10.5 4.125C10.707 4.125 10.875 4.293 10.875 4.5V10.5C10.875 10.707 10.707 10.875 10.5 10.875Z" fill="#6FA4D8"/>
</g>
<g clip-path="url(#clip16_2696_444)">
<path d="M7.31855 14.0577C7.22255 14.0577 7.12655 14.0209 7.05305 13.9482C6.9068 13.8019 6.9068 13.5642 7.05305 13.4179L10.2345 10.2357C10.3808 10.0894 10.6185 10.0894 10.7648 10.2357C10.911 10.3819 10.911 10.6197 10.7648 10.7659L7.5833 13.9482C7.51055 14.0209 7.41455 14.0577 7.31855 14.0577Z" fill="#6FA4D8"/>
</g>
<path d="M10.5 12C11.3284 12 12 11.3284 12 10.5C12 9.67157 11.3284 9 10.5 9C9.67157 9 9 9.67157 9 10.5C9 11.3284 9.67157 12 10.5 12Z" fill="#F68820"/>
<g clip-path="url(#clip17_2696_444)">
<path d="M10.5 11.25C10.9142 11.25 11.25 10.9142 11.25 10.5C11.25 10.0858 10.9142 9.75 10.5 9.75C10.0858 9.75 9.75 10.0858 9.75 10.5C9.75 10.9142 10.0858 11.25 10.5 11.25Z" fill="#DBDEE3"/>
</g>
<g clip-path="url(#clip18_2696_444)">
<path d="M5.25 10.875H4.5C4.293 10.875 4.125 10.707 4.125 10.5C4.125 10.293 4.293 10.125 4.5 10.125H5.25C5.457 10.125 5.625 10.293 5.625 10.5C5.625 10.707 5.457 10.875 5.25 10.875Z" fill="#F68820"/>
</g>
<g clip-path="url(#clip19_2696_444)">
<path d="M10.5 16.875C10.293 16.875 10.125 16.707 10.125 16.5V15.75C10.125 15.543 10.293 15.375 10.5 15.375C10.707 15.375 10.875 15.543 10.875 15.75V16.5C10.875 16.707 10.707 16.875 10.5 16.875Z" fill="#F68820"/>
</g>
<g clip-path="url(#clip20_2696_444)">
<path d="M16.5 10.875H15.75C15.543 10.875 15.375 10.707 15.375 10.5C15.375 10.293 15.543 10.125 15.75 10.125H16.5C16.707 10.125 16.875 10.293 16.875 10.5C16.875 10.707 16.707 10.875 16.5 10.875Z" fill="#F68820"/>
</g>
<g clip-path="url(#clip21_2696_444)">
<path d="M35.25 30C34.4212 30 33.75 29.3288 33.75 28.5C33.75 27.6712 34.4212 27 35.25 27C36.0788 27 36.75 27.6712 36.75 28.5C36.75 29.3288 36.0788 30 35.25 30Z" fill="#F68820"/>
</g>
<g clip-path="url(#clip22_2696_444)">
<path d="M34.688 15.563L35.2505 16.1255L36.938 14.438C37.2485 14.1275 37.7525 14.1275 38.063 14.438C38.3735 14.7485 38.3735 15.2525 38.063 15.563L35.813 17.813C35.5025 18.1235 34.9985 18.1235 34.688 17.813L33.563 16.688C33.2525 16.3775 33.2525 15.8735 33.563 15.563C33.8735 15.2525 34.3775 15.2525 34.688 15.563Z" fill="#5C76B2"/>
</g>
<g clip-path="url(#clip23_2696_444)">
<path d="M34.688 21.563L35.2505 22.1255L36.938 20.438C37.2485 20.1275 37.7525 20.1275 38.063 20.438C38.3735 20.7485 38.3735 21.2525 38.063 21.563L35.813 23.813C35.5025 24.1235 34.9985 24.1235 34.688 23.813L33.563 22.688C33.2525 22.3775 33.2525 21.8735 33.563 21.563C33.8735 21.2525 34.3775 21.2525 34.688 21.563Z" fill="#5C76B2"/>
</g>
</g>
<defs>
<clipPath id="clip0_2696_444">
<rect width="45" height="45" fill="white" transform="translate(1.5 1.5)"/>
</clipPath>
<clipPath id="clip1_2696_444">
<rect width="42" height="27" fill="white" transform="translate(4.5 9)"/>
</clipPath>
<clipPath id="clip2_2696_444">
<rect width="42" height="4.5" fill="white" transform="translate(4.5 36)"/>
</clipPath>
<clipPath id="clip3_2696_444">
<rect width="39" height="27" fill="white" transform="translate(4.5 9)"/>
</clipPath>
<clipPath id="clip4_2696_444">
<rect width="39" height="4.5" fill="white" transform="translate(4.5 36)"/>
</clipPath>
<clipPath id="clip5_2696_444">
<rect width="33" height="21" fill="white" transform="translate(7.5 12)"/>
</clipPath>
<clipPath id="clip6_2696_444">
<rect width="19.5" height="3" fill="white" transform="translate(10.5 15)"/>
</clipPath>
<clipPath id="clip7_2696_444">
<rect width="19.5" height="3" fill="white" transform="translate(10.5 21)"/>
</clipPath>
<clipPath id="clip8_2696_444">
<rect width="19.5" height="3" fill="white" transform="translate(10.5 27)"/>
</clipPath>
<clipPath id="clip9_2696_444">
<rect width="3" height="3" fill="white" transform="translate(28.125 40.5)"/>
</clipPath>
<clipPath id="clip10_2696_444">
<rect width="7.125" height="3" fill="white" transform="translate(21 40.5)"/>
</clipPath>
<clipPath id="clip11_2696_444">
<rect width="24.75" height="3" fill="white" transform="translate(12.375 43.5)"/>
</clipPath>
<clipPath id="clip12_2696_444">
<rect width="9" height="3" fill="white" transform="translate(28.125 43.5)"/>
</clipPath>
<clipPath id="clip13_2696_444">
<rect width="20.25" height="18" fill="white" transform="translate(1.5 1.5)"/>
</clipPath>
<clipPath id="clip14_2696_444">
<rect width="18" height="18" fill="white" transform="translate(1.5 1.5)"/>
</clipPath>
<clipPath id="clip15_2696_444">
<rect width="0.75" height="6.75" fill="white" transform="translate(10.125 4.125)"/>
</clipPath>
<clipPath id="clip16_2696_444">
<rect width="3.93113" height="3.93169" fill="white" transform="translate(6.94336 10.126)"/>
</clipPath>
<clipPath id="clip17_2696_444">
<rect width="1.5" height="1.5" fill="white" transform="translate(9.75 9.75)"/>
</clipPath>
<clipPath id="clip18_2696_444">
<rect width="1.5" height="0.75" fill="white" transform="translate(4.125 10.125)"/>
</clipPath>
<clipPath id="clip19_2696_444">
<rect width="0.75" height="1.5" fill="white" transform="translate(10.125 15.375)"/>
</clipPath>
<clipPath id="clip20_2696_444">
<rect width="1.5" height="0.75" fill="white" transform="translate(15.375 10.125)"/>
</clipPath>
<clipPath id="clip21_2696_444">
<rect width="3" height="3" fill="white" transform="translate(33.75 27)"/>
</clipPath>
<clipPath id="clip22_2696_444">
<rect width="4.96576" height="3.84075" fill="white" transform="translate(33.3301 14.2051)"/>
</clipPath>
<clipPath id="clip23_2696_444">
<rect width="4.96576" height="3.84076" fill="white" transform="translate(33.3301 20.2051)"/>
</clipPath>
</defs>
</svg>
